<?xml version="1.0" encoding="UTF-8"?>
<svg id="Ebene_1" data-name="Ebene 1" xmlns="http://www.w3.org/2000/svg" viewBox="0 0 280.49 216.72">
  <polygon points="170.6 26.26 137.04 59.6 102.6 112.71 71.27 145.15 53.04 177.38 4.45 212.65 .67 216.02 0 216.72 280.49 216.72 280.49 82.99 276.01 77.49 261.9 65.4 239.99 52.32 233.93 34.49 219.93 27.15 196.82 23.6 170.6 26.26" style="fill: #fff; fill-rule: evenodd;"/>
  <g id="Ebene_1-2" data-name="Ebene 1">
    <path d="m124.99,73.15c5.64-10.02,9.06-17.41,11.96-21.05,3.62-2.91,7.25-6.18,10.87-9.81,4.35-3.63,10.14-10.54,17.39-20.72,7.25-10.18,11.6-15.99,13.05-17.45,2.17-1.46,5.13-2.68,8.75-4.13,2.68.44,7.92,1.59,13,5.22,4.35,3.63,6.69,14.92,12.49,19.27,8.56-3.44,15.54,1.63,23.22,8.11,5.08,7.27,3.78,15.14,8.86,19.5,5.8,4.36,16.38,7.8,26.1,17.45,6.48,6.44,9.82,13.44,9.82,13.44,0,0-5.76-5.38-11.83-8s-11.17-12-16.83-9.17-10.33-5.67-14.17-9.83c-5.26-5.72-1.62-15.75-8.5-20.33-5.5-3.67-9-6-14.17-4s-7.64,4.88-10.67,3-7.82-5.04-10-5.86c-1.06-.4-1.87-.63-2.42-.76-.43-.1-3.58,2.62-2.24,7.12s10.5,15.33,13.67,16.83,12.89,1.7,16.83,3,6.5,1.33,8.5,4.83c2.17,3.63-6.26,9.45-14,11.17s-25.24,5.48-25.53,5.04,30.2-8.71,29.87-13.21-12.33-2-17.67-3.67c-6.58-2.06-23.17-25.06-27.42-21.28s-2.79,2.46-4.35,5.46-4.5,20.27-4.5,20.27c-3.62,13.81-2.6,13.56-8.39,21.56-2.01,2.88-16.24,16.39-23.67,23.21-10.67,9.79-17.33,13.79-17.33,13.79,0,0,36-34,37.67-44.83s4.69-18.24-1.15-18.71-5.89-1.49-10.87,3.27-12.61,22.18-22.81,34.93c-10,12.5-18.15,24.01-27.22,38.78-3.38,5.85-11.76,7.62-15.78,14.22s-13.21,22.75-18.22,28.61c-7.97,8.72-19.21,16.18-25.73,20.54-6.52,4.36-11.23,6.36-19.57,11.08-7.25,2.91-11.23,5.93-11.96,6.67,0,0,6.71-8.66,20.48-18.11,14.5-10.18,22.65-17.51,26.27-21.14,4.35-3.63,9.42-10.54,15.22-20.72s2.18-13.82,19.29-24.71,38.08-48.87,43.72-58.89Z" style="fill-rule: evenodd;"/>
  </g>
</svg>