<?xml version="1.0" encoding="UTF-8"?>
<svg id="Ebene_1" data-name="Ebene 1" xmlns="http://www.w3.org/2000/svg" viewBox="0 0 311.01 216.8">
  <g id="Ebene_2" data-name="Ebene 2">
    <path d="m68.67,102.72l-36.44,71.11-24,35.11L.01,216.72h311V86.52l-15.33-7.46-37.67-21.44-50.67-42.67s-28.67,17-36,23.33-19.33,25-19.33,25l-14,30-32-10.67-37.33,20.11h-.01Z" style="fill: #fff; fill-rule: evenodd;"/>
  </g>
  <g id="Ebene_1-2" data-name="Ebene 1">
    <path d="m311,86.52c-.67.67-2.03,2.72-5.03,3.03s-3.4.26-4.03,0-3.35-3.03-10.06-7.07c-6.71-4.71-12.75-8.41-18.12-11.1-6.04-2.02-11.41-4.37-16.1-7.07-4.7-2.69-9.73-6.06-15.1-10.09-6.04-4.04-11.07-6.73-15.1-8.07-4.7-1.35-8.39-4.04-11.07-8.07l-4.03-6.06s-2.22-4.61-4.24-5.37c-.98-.37-1.73-.58-2.24-.7-.4-.09-.77.24-.72.65l1.16,9.45c.67,6.06,1.68,9.76,3.02,11.1,2.01.67,4.36,1.68,7.05,3.03,3.35,1.35,5.7,3.7,7.05,7.07,2.01,3.36,4.03,5.38,6.04,6.06,1.34.67,8.01,3.51,8.51,4.14s-.46.91-.46.91l-6.04,1.01c-2.68.67-5.03,1.01-7.05,1.01s-5.7.34-11.07,1.01c0,0-9.79-.6-10.06-1.01s-.15-1.45,0-2.02,5.54-5.51,6.04-6.06.8-.91.46-1.34-5.16-3.37-8.51-4.71-5.7-5.05-7.05-11.1l-5.03-10.09s-3.83,4.51-4.03,5.05-5.03,18.17-5.03,18.17c-3.35,12.78-7.72,22.88-13.08,30.28-4.7,6.73-9.39,13.79-14.09,21.2-4.03,6.73-6.71,11.78-8.05,15.14-1.34,2.69-1.97,6.23-2.01,7.07s.38,2.53,0,3.03-.63.57-1.01,1.01-.23.8-1.01,1.01-2.01,0-2.01,0v-5.05c0-3.36,1.34-8.41,4.03-15.14,2.68-7.4,6.37-14.8,11.07-22.2,4.7-7.4,8.39-14.8,11.07-22.2,0,0,3.22-10.63,4.03-12.11s4.08-5.36,0-6.06-8.44,2.05-10.06,3.03-3.02,7.07-3.02,7.07c-2.01,4.71-5.7,14.13-11.07,28.26s-11.74,27.92-19.12,41.38c-7.38,12.78-15.1,23.89-23.15,33.31-7.38,8.07-16.1,12.84-22.14,16.88s-10.4,5.89-18.12,10.26c-6.71,2.69-10.4,5.49-11.07,6.17,0,0,6.21-8.02,18.96-16.76,13.42-9.42,20.97-16.21,24.32-19.57,4.03-3.36,8.72-9.76,14.09-19.18s10.06-18.17,14.09-26.24c2.68-7.4,1.68-13.79-3.02-19.18-5.37-6.06-9.73-9.08-13.08-9.08-2.68,0-5.7.67-9.06,2.02s-6.04,4.04-8.05,8.07-5.7,14.8-11.07,32.3c0,0-7.16,23.89-8.05,25.23s-4.03,7.07-4.03,7.07c0,0,2.53-13.64,2.01-13.12l-4.03,4.04s-1.26,1.12-2.01,2.02-4.03,6.06-4.03,6.06c-3.35,4.71-4.47,6.31-5.03,7.07s-5.54,3-7.05,3.03-3.02,1.01-3.02,1.01c0,0,.56-2.1,1.01-3.03s1.25-1.82,2.01-3.03,5.03-7.74,11.07-19.18,9.73-19.18,11.07-23.21c0,0,1.9-3.51,2.01-5.05s-.5-4.26-1.01-5.05-2.01,1.01-2.01,1.01c0,0-1.5,2.11-2.01,3.03s-19.12,34.32-19.12,34.32c-12.08,21.53-18.79,33.31-20.13,35.33,0,0-4.33,8.24-6.04,10.09s-5.37,4.37-6.04,5.05l-6.04,6.06s-3.08,2.38-4.03,3.03-4.03,2.02-4.03,2.02c0,0,1.03-2.3,2.01-4.04s4.03-5.05,8.05-11.1c4.03-6.73,9.06-16.15,15.1-28.26,0,0,7.55-13.35,9.06-17.16s2.4-3.09,4.03-6.06,4.7-10.43,14.09-29.27,15.1-29.61,17.11-32.3c2.68-2.69,5.03-4.04,7.05-4.04,2.68,0,5.03-1.68,7.05-5.05,2.01-2.69,5.03-7.07,9.06-13.12s6.88-10.04,8.05-11.1,3.02-1.01,3.02-1.01c0,0,.95-.06,2.01,0s1.96.17,3.02,1.01,8.61,10.09,10.06,12.11,6.71,11.1,8.05,13.12c1.34,1.35,1.71,1.37,3.02,2.02s1.54,2.3,3.02,3.03,2.49,1.77,4.03,1.01,7.05-18.17,7.05-18.17c4.7-10.09,8.39-16.82,11.07-20.19,3.35-2.69,6.71-5.72,10.06-9.08,4.03-3.36,9.39-9.76,16.1-19.18s10.74-14.8,12.08-16.15c2.01-1.35,4.75-2.48,8.1-3.82,2.48.41,7.33,1.47,12.03,4.83,4.03,3.36,8.72,7.07,14.09,11.1,4.03,4.71,8.39,10.09,13.08,16.15,4.7,6.73,9.39,12.11,14.09,16.15,5.37,4.04,13.42,9.42,24.16,16.15s21.53,13,23.15,14.13,6.52,5.63,7.05,6.06c.42.34,2.01,2.02,2.01,2.02v-.07Z" style="fill-rule: evenodd;"/>
  </g>
</svg>