<?xml version="1.0" encoding="UTF-8"?>
<svg id="Ebene_1" data-name="Ebene 1" xmlns="http://www.w3.org/2000/svg" viewBox="0 0 384.57 1234.84">
  <path d="m213.08,216.1c22.76.05,71.84,12.52,85,22,13.7,9.87,17.18,35.33,24,52,17.09,41.74,30.73,87.49,45,132,6.2,19.33,7.83,37.49,13,58,2.59,10.27,6.71,27.35,3,40-6.36,21.66-41.62,40.7-69,42,.81,5.47,5.66,14.28,2,20-1.19,3.62-2.87,4.44-6,6,4.38,11.25-3.16,23.25,0,38,5.19,24.23,1.67,56.68,4,82v31c2.21,10.36-1.48,25.38,1,37,4.55,21.34,1,50.66,1,74l-1,39c-.96,3.43-4.03,7.26-5,11-1.92,7.44-.51,17.09-2,24l-1,57c-3.63,16.78-1,40.33-1,59v17c-3.43,15.88-1,38.26-1,56v17c-1.19,5.52.6,15.28-1,22-1.25,5.25-3.64,8.38-4,15,15.75,10.23,32.07,31.74,46,45,6.43,6.12,13.9,7.16,14,20-9.02,4.61-29.41,2-42,2h-99c-1.83-3.43-2.12-8.03-2-14,3.97-6.26,2-17.03,4-25,1.81-7.21,3.82-16.32,6-23l-1-2c-2.37-4.03-2.21-13.63-4-18-3.86-9.42-1-27.54-1-39v-74c0-10.85,2.65-23.83,0-34v-47c-.98-4.32.27-12.46-1-18-5.29-23.11-4.97-56.97-5-84l1-91c0-7.73,3.36-27.95,0-33,.25,19.13-3.96,47.67-8,65l-5,44c-5.69,23.26-6.32,48.6-13,72l-7,21-8,52c-9.5,36.86-14.52,77.01-24,114-3.11,12.16-3.37,24.42-6,36v18c-.95,2.63-4.97,3.06-6,5v8c-1.14,2.41-2.96,1.18-4,5,5.2,6.88,15.83,45.67,16,58-9.24,4.79-38.38,2.11-52,2-5.34-3.38-36.04-1.11-45-1-1.59-2.95-2.08-5.72-2-11,2.63-3.06,2.25-6.74,4-11,5.31-12.93,9.98-28.13,16-41-5.07-3.17-5.33-7.36-5-16,5.71-6.52,1-30.56,1-43,0-28.13-3.73-62.12,2-87l1-29c2.8-12.49.95-26.7,4-40,6.21-27.1,7.7-56.5,14-83v-18l2-53c7.17-32.19,3.75-67.57,11-99,2.07-8.98-2.53-20.86,0-28,5.03-14.2,3.24-31.17,7-48,1.12-5.01,3.43-13.5,2-20-2.46-11.21-6-13.36-6-27,2.73-3.85,2.86-11.59,2-16-7.79-.37-14.72-3.91-21-6-24.32-8.09-46.11-13.5-65-26-7.33-4.85-17.08-10.11-20-19-3.12-9.5,1.34-23.47,3-30,6.25-24.59,9.17-47.84,16-70l5-24c8.95-27.46,16.09-57.25,25-84,4.89-14.68,7.7-38.76,16-50,9.65-13.06,58.84-33.15,80-36v-18c-9.49-1.71-17.51-4.43-22-11l-1-5c-1.52-1.61-4.52-.17-7-1-7.11-2.38-18.52-7.83-21-15-3.63-4.81-.04-12.84-2-20-3.7-13.57-13.76-17.13-8-37-12.53-8.27-18.8-43.09-8-59,1.88-2.77,7.58-7.93,11-9,2.7-.84,5.27.06,7-1,4.3-4.7,6.18-11.88,10-17,7.71-10.32,25.78-18.56,40-22,12.76-3.09,29.68.63,34,7,16.26-7.76,43.76-12.65,55,4,5.27,7.81.65,14.33,4,24,1.62,4.68,7.9,9.24,10,14,5.51,12.47,2.37,32.06,0,44-.28,1.42,2.57,8.21,3,10,5.34,22.36.32,38.77-15,45,.04,13.45-.19,31.4-6,40-3,4.44-15.57,7.96-17,10v17Z" style="fill: none; fill-rule: evenodd;"/>
</svg>